<svg width="582" height="345" viewBox="0 0 582 345" fill="none" xmlns="http://www.w3.org/2000/svg">
<path d="M45.93 305.92C45.52 305.92 45.12 305.84 44.72 305.66C43.75 305.26 22.51 298.37 8.48001 293.85L6.70001 293.27L8.07999 292.01C12.95 287.57 21.3 280.05 22.56 279.62C23.15 279.34 25.99 276.74 27.88 275.01C30.88 272.27 32.26 271.03 32.92 270.71C34.46 269.96 35.76 269.96 39.14 270.34C41.61 270.62 53.09 273.54 61.47 275.67C64.41 276.42 66.81 277.03 67.96 277.31C69.14 277.59 70.13 277.89 70.95 278.21C70.81 277.54 70.53 276.91 70.11 276.31C66.65 271.46 54.84 270.2 48.49 269.52C47.11 269.37 45.96 269.25 45.14 269.12C40.22 268.34 27.07 267 25.18 266.98H24.92C22.55 266.95 20.51 266.92 19.7 267.77C19.27 268.22 19.09 269.02 19.17 270.2L19.21 270.79C19.29 272.02 19.34 272.97 19.35 273.28L17.17 273.34C17.17 273.04 17.1 272.11 17.03 270.92L16.99 270.33C16.88 268.51 17.25 267.18 18.12 266.26C19.59 264.72 22.07 264.76 24.95 264.8H25.21C27.24 264.83 40.42 266.17 45.48 266.97C46.27 267.1 47.38 267.21 48.72 267.36C55.88 268.13 67.85 269.41 71.88 275.06C72.84 276.4 73.29 277.9 73.23 279.53C73.71 279.98 73.97 280.48 74.04 281.03C74.17 282.08 72.97 288.4 72.59 289.94C72.09 291.98 72.33 294.24 72.75 294.58C74.11 295.21 93.45 299.62 97.01 299.97C97.5 300.02 97.85 299.96 98.04 299.79C98.35 299.52 98.46 298.85 98.51 298.12C97.83 296.6 97.48 294.76 97.19 293.27C97.12 292.89 97.05 292.54 96.98 292.23C95.54 285.6 96.37 279.04 99.26 274.23L101.15 271.09L101.28 274.75C101.3 275.39 101.34 276.03 101.38 276.68L101.45 277.94C101.66 282.07 101.83 286.11 101.61 290.2C101.53 291.63 101.29 292.96 101.05 294.24C100.97 294.66 100.89 295.09 100.82 295.52C100.74 295.96 100.73 296.52 100.72 297.12C100.72 297.3 100.72 297.49 100.71 297.68C100.92 298.06 101.15 298.38 101.41 298.6C102.96 299.86 105.96 297.02 107.57 295.5C107.84 295.24 108.09 295.01 108.3 294.82C110.66 292.69 113.08 290.72 115.43 288.81C121.89 283.54 127.99 278.56 132.29 271.01C134.48 267.16 144.24 267.65 154.05 268.48C155.23 268.58 156.23 268.67 156.96 268.71L203.8 268.88L211.96 269.13C222.57 269.16 227.89 269.17 229.25 269.11C230.06 269.07 232.11 267.54 233.6 266.42C236.37 264.34 238.55 262.7 240.18 263.5C240.96 263.88 241.37 264.7 241.38 265.93C241.4 267.49 239.56 270.52 238.93 271.51C237.23 275.22 236.37 278.69 236.37 281.82C236.37 285.26 238.53 288 242.96 290.2C246.69 292.04 250.65 292.98 254.72 292.98C260.9 292.98 266.73 291.81 272.05 289.5C275.35 288.03 277.63 286.26 278.81 284.23C279.82 282.36 280.34 279.44 280.34 275.56C280.34 269.22 278.55 263.41 275.02 258.29L274.54 257.6L275.09 256.96C279.29 252.09 279.74 248.91 279.34 247.79C279.18 247.33 278.92 247.29 278.83 247.27C276.64 246.89 274.13 247.07 270.94 247.3C268.48 247.48 265.7 247.68 262.36 247.68C253.78 247.68 245.33 247.6 235.54 247.5C230.68 247.45 225.47 247.4 219.73 247.36L212.23 247.03L180.3 246.68C154.23 246.37 145.58 250.48 142.74 251.84C142.5 251.96 142.29 252.06 142.1 252.14C134.65 255.45 131.26 256.15 129.62 254.71C128.77 253.97 128.57 252.81 129.02 251.25C129.65 249.09 130.91 247.67 131.74 246.73C132.03 246.4 132.43 245.96 132.48 245.79C132.45 245.87 132.48 246.03 132.53 246.1L133.91 244.42C134.36 244.8 134.6 245.26 134.63 245.76C134.69 246.67 134.07 247.37 133.35 248.18C132.56 249.07 131.58 250.18 131.09 251.86C130.86 252.66 130.95 253 131.03 253.07C131.4 253.39 133.11 253.74 141.2 250.15C141.37 250.07 141.56 249.98 141.78 249.88C145.05 248.32 153.73 244.18 180.3 244.51L212.26 244.86L219.76 245.19C225.46 245.24 230.67 245.29 235.53 245.33C245.31 245.43 253.75 245.51 262.33 245.51C265.59 245.51 268.33 245.31 270.75 245.14C274.08 244.9 276.72 244.71 279.17 245.14C280.19 245.32 280.98 246.02 281.36 247.07C282.25 249.57 280.72 253.53 277.24 257.75C280.72 263.08 282.48 269.07 282.48 275.57C282.48 279.88 281.89 283.06 280.67 285.31C279.24 287.77 276.63 289.84 272.89 291.5C267.29 293.93 261.17 295.16 254.69 295.16C250.28 295.16 246 294.15 241.97 292.15C236.79 289.58 234.17 286.11 234.17 281.82C234.17 278.36 235.11 274.56 236.96 270.53L237.03 270.4C238.08 268.76 239.19 266.59 239.18 265.95C239.18 265.71 239.15 265.56 239.13 265.47C238.32 265.57 236.19 267.18 234.89 268.16C232.7 269.8 230.81 271.22 229.33 271.29C227.92 271.35 222.58 271.34 211.94 271.31H210.77L203.74 271.06L156.88 270.89C156.08 270.85 155.06 270.76 153.85 270.66C148.92 270.24 135.84 269.13 134.16 272.09C129.66 280 123.41 285.1 116.79 290.5C114.47 292.39 112.07 294.35 109.74 296.45C109.54 296.63 109.31 296.85 109.05 297.1C107 299.05 103.21 302.64 100.2 300.45C100.03 300.83 99.79 301.17 99.47 301.45C98.81 302.04 97.91 302.28 96.79 302.17C93.05 301.8 73.09 297.3 71.67 296.5C69.68 295.39 70.07 291.36 70.42 289.7C70.33 289.74 70.23 289.78 70.13 289.81C69.39 290.04 68.85 289.55 68.57 289.29C68.37 289.11 68.18 288.94 67.94 288.85C67.06 288.56 66.87 288.68 66.19 289.13C65.82 289.37 65.35 289.68 64.71 289.94C63.71 290.4 58.5 295.64 55.39 298.77C53.29 300.88 51.48 302.7 50.66 303.42C48.92 304.94 47.4 305.96 45.95 305.96L45.93 305.92ZM10.93 292.35C18.6 294.83 44.53 303.2 45.58 303.66C45.98 303.83 46.8 303.83 49.21 301.73C49.97 301.07 51.76 299.27 53.83 297.19C59.86 291.12 62.74 288.34 63.87 287.88C64.32 287.7 64.66 287.48 64.98 287.26C65.8 286.72 66.74 286.12 68.61 286.74C68.9 286.84 69.14 286.96 69.35 287.1C69.63 286.08 70.06 284.23 70.64 281.68L70.87 280.66C70.87 280.66 70.89 280.58 70.9 280.54C70.26 280.22 69.2 279.83 67.45 279.41C66.29 279.13 63.88 278.52 60.93 277.77C53.56 275.89 41.22 272.75 38.89 272.49C35.59 272.12 34.81 272.19 33.87 272.66C33.37 272.92 31.04 275.05 29.34 276.61C25.73 279.92 24.06 281.39 23.26 281.67C22.42 282.1 16.51 287.28 10.92 292.35H10.93ZM99.34 279.48C98.28 283.16 98.17 287.49 99.09 291.75C99.12 291.89 99.15 292.05 99.19 292.21C99.3 291.5 99.39 290.79 99.43 290.06C99.62 286.55 99.51 283.04 99.34 279.48Z" fill="white"/>
<path d="M409.87 244.72C413.33 244.76 416.61 244.78 419.33 244.78C422.64 244.78 431.52 244.9 440.1 245.02C447.98 245.13 455.42 245.21 457.28 245.22L463.82 245.09C469.13 245.11 474.37 245.22 481.94 245.46C482 245.46 482.06 245.46 482.12 245.46C488.62 245.46 496.73 234.41 502.11 227.07C506.49 221.1 507.95 219.23 509.52 219.83C510.71 220.28 520.09 226.88 522.94 228.9L521.68 230.68C516.39 226.94 510.42 222.81 508.98 221.99C508.07 222.63 505.84 225.66 503.86 228.36C497.82 236.6 489.54 247.86 481.87 247.63C474.32 247.39 469.1 247.28 463.84 247.26L457.32 247.39C455.43 247.42 447.98 247.3 440.09 247.19C431.51 247.07 422.64 246.95 419.35 246.95C416.84 246.95 413.86 246.93 410.69 246.9" fill="white"/>
<path d="M410.67 246.91C401.77 246.82 391.43 246.63 386.24 246.53L383.95 246.49L370.49 246.08C366.24 245.99 362.95 247.3 360.3 248.33C357.15 249.56 354.18 250.72 352.74 247.13C352.23 245.87 352.28 244.59 352.29 244.45C352.37 243.76 352.41 243.13 352.41 242.5C352.41 240.07 351.3 237.69 349.12 235.42C347.43 233.67 344.84 232.81 341.21 232.81C336.72 232.81 331.42 235.11 325.46 239.65C323.48 241.15 318.64 245.56 311.09 252.76C304.24 259.36 301.51 260.12 300.05 260.12C294.96 260.12 290.97 259.55 288.21 258.43C284.5 256.91 281.41 253.77 279.52 249.59L281.5 248.69C283.16 252.36 285.84 255.11 289.03 256.42C291.53 257.44 295.24 257.95 300.05 257.95C300.99 257.95 303.48 257.07 309.59 251.19C317.31 243.83 322.08 239.49 324.15 237.92C330.5 233.09 336.24 230.64 341.22 230.64C345.47 230.64 348.57 231.71 350.69 233.91C353.28 236.6 354.59 239.49 354.59 242.5C354.59 243.22 354.55 243.94 354.46 244.64C354.46 244.64 354.44 245.53 354.76 246.33C355.32 247.73 355.9 247.72 359.51 246.31C362.19 245.26 365.85 243.81 370.54 243.91L386.28 244.36C391.31 244.45 401.16 244.63 409.86 244.73" fill="white"/>
<path d="M320.19 230.73L309.71 223.26L316.9 212.88L326.73 220.67L320.19 230.73ZM312.72 222.73L319.6 227.64L323.82 221.15L317.36 216.03L312.71 222.74L312.72 222.73Z" fill="white"/>
<path d="M411.04 271.13C410.34 271.09 403.43 271.11 396.74 271.13C389.43 271.15 382.53 271.18 381.53 271.13C381.53 271.13 373.24 270.94 370.67 270.89C358.69 270.65 356.65 270.48 350.78 269.3C347.03 268.55 343.18 269.18 341.11 269.52C340.4 269.64 339.93 269.71 339.61 269.71C338.53 269.71 337.77 268.79 336.89 267.73C335.25 265.74 333.91 264.42 331.63 265.43L331.46 265.49L327.4 266.53C325.09 267.19 322.66 267.76 320.18 268.21C316.08 268.92 309.62 269.29 300.95 269.3C300.28 270.25 299.31 271.91 298.07 274.24C296.24 277.56 295.57 278.11 294.75 278.11C294.09 278.11 292.99 277.75 292.99 275.34C292.99 273.45 293.31 271.43 293.93 269.3C292.04 269.28 290.03 268.83 287.95 267.96C287.68 279.12 284.72 287.96 279.15 294.23C273 301.17 263.92 304.69 252.17 304.69C237.74 304.69 230.43 298.12 230.43 285.17C230.43 282.18 230.88 279.17 231.78 276.23L233.86 276.86C233.03 279.59 232.61 282.39 232.61 285.17C232.61 296.84 239.01 302.51 252.17 302.51C263.27 302.51 271.8 299.24 277.52 292.78C283.01 286.6 285.79 277.68 285.79 266.26V264.49L287.37 265.29C289.76 266.51 292.02 267.12 294.07 267.12H296.95L296.44 268.57C295.65 270.82 295.22 272.95 295.16 274.89C295.41 274.48 295.74 273.94 296.14 273.2C297.66 270.35 298.77 268.49 299.54 267.53L299.87 267.12H300.39C309.21 267.12 315.73 266.76 319.78 266.06C322.18 265.62 324.55 265.06 326.82 264.42L330.82 263.39C334.73 261.71 337.12 264.6 338.56 266.33C338.95 266.8 339.48 267.44 339.71 267.54C339.75 267.52 340.28 267.44 340.75 267.36C342.96 266.99 347.07 266.32 351.21 267.15C356.91 268.3 358.91 268.46 370.71 268.7C373.29 268.75 381.6 268.94 381.6 268.94C382.57 268.99 389.77 268.96 396.73 268.94C403.17 268.92 407.72 268.91 409.86 268.92" fill="white"/>
<path d="M409.87 268.94C410.56 268.94 411 268.95 411.17 268.96C413.43 269.09 419.59 269.04 426.12 268.98C429.98 268.95 433.98 268.91 437.44 268.91C441.31 268.91 449 268.9 451.19 268.88C451.3 268.88 458.54 269.05 460.54 268.84C462.4 268.65 464.19 268.34 465.78 268.07C469.32 267.47 470.94 267.19 471.65 268.31C471.9 268.7 472.07 269.37 471.42 270.3C470.99 270.92 470.5 271.63 469.98 272.36C468.6 274.33 467.04 276.56 466.45 277.59C466.66 278.79 473.25 282.67 480.59 285.78L479.74 287.79C477.39 286.79 465.58 281.65 464.42 278.2C464.16 277.44 464.35 276.86 464.55 276.51C465.19 275.39 466.72 273.21 468.19 271.11C468.52 270.64 468.84 270.19 469.13 269.76C468.3 269.85 467.14 270.04 466.13 270.22C464.51 270.5 462.68 270.81 460.75 271.01C458.62 271.23 451.47 271.07 451.16 271.06C449 271.08 441.3 271.09 437.43 271.09C433.98 271.09 429.98 271.13 426.13 271.16C419.57 271.22 413.37 271.27 411.04 271.14" fill="white"/>
<path d="M2.9 254.3L3.18 271.47L1.07001 272.19L0.470009 252.95C0.360009 249.59 2.32001 246.5 5.41001 245.16L10.19 243.08C14.76 240.69 19.52 237.85 20.48 237.16C22.25 235.9 32.48 230.19 34.57 229.19C36.34 228.34 40.81 226.44 44.21 226.94L44.62 227C47.17 227.39 51.43 228.04 53.12 226.9C55.24 225.47 56.48 223.02 56.89 219.44C57.42 214.87 60.69 202.89 61.15 201.46C61.23 201.22 61.29 200.95 61.37 200.67C61.78 199.05 62.55 196.01 66.08 196.47C67.72 196.68 72.73 197.74 77.58 198.76C81.74 199.64 86.04 200.54 87.03 200.65C88.91 200.86 102.88 202.55 105.88 203.09C107.74 203.42 117.17 205.12 119.73 205.68C120.68 205.89 121.37 206.02 121.9 206.11C122.71 206.26 123.24 206.35 123.83 206.6C124.99 207.09 126.42 207.99 126.61 209.43C126.76 210.6 126.53 212.59 125.97 214.9C125.44 217.09 121.05 234.55 120.59 235.93C120.16 237.22 119.52 239.24 119.52 239.24C119.52 239.24 119.52 239.25 119.52 239.26C120.4 239.47 121.33 239.75 122.28 240.1C123.27 240.47 124.66 240.89 126.12 241.33C130.09 242.53 132.78 243.38 133.94 244.39C134.4 244.78 134.45 245.47 134.06 245.92C133.67 246.38 132.98 246.43 132.53 246.04C131.63 245.26 128.08 244.2 125.5 243.42C124 242.97 122.58 242.54 121.53 242.15C118.6 241.06 115.88 240.78 115.14 240.89C114.3 241.17 108.75 245.07 104.79 248.2C102.55 249.97 100.22 250.43 98.37 250.43C96.94 250.43 95.78 250.16 95.18 250.01L95.02 249.97C94.73 249.9 94.01 249.75 93.06 249.55C89.01 248.68 84.58 247.73 83.44 247.33C82.3 246.93 68.56 243.84 62.69 242.52C60.79 242.09 59.47 241.79 59.2 241.73C59.07 241.7 46.13 238.47 45.33 237.33C45.11 237.01 44.77 236.33 44.97 235.28C45.3 233.58 46.94 231.72 49.85 229.74C47.98 229.74 45.99 229.43 44.32 229.17L43.91 229.11C41.62 228.77 38.08 229.95 35.53 231.17C33.31 232.23 23.31 237.84 21.76 238.95C20.75 239.67 15.86 242.59 11.21 245.02L7.54999 246.79C4.66999 248.18 2.86002 251.12 2.92002 254.32L2.9 254.3ZM47.07 235.94C48.83 236.69 57.94 239.19 59.67 239.6C59.94 239.66 61.25 239.96 63.13 240.38C73.38 242.69 83.01 244.87 84.12 245.26C85.23 245.65 90.8 246.84 93.48 247.41C94.45 247.62 95.19 247.78 95.48 247.84L95.65 247.88C96.91 248.18 100.27 248.97 103.42 246.48C103.51 246.41 112.39 239.5 114.61 238.78C112.93 238.54 110.82 238.69 108.75 240.04C107.69 240.73 106.91 241.33 106.23 241.87C103.45 244.03 102.25 244.65 95.68 243.34C90.32 242.27 56.58 234.81 55.93 234.48C55.59 234.31 55.36 233.98 55.33 233.6C55.3 233.22 55.46 232.85 55.77 232.63C56.83 231.85 57.72 231.23 58.43 230.79C57.1 229.97 54.67 229.18 51.54 231.22C47.36 233.95 47.06 235.51 47.09 235.95L47.07 235.94ZM59 232.99C66.39 234.69 89.4 239.85 96.09 241.18C102 242.36 102.61 241.89 104.88 240.13C105.56 239.6 106.41 238.94 107.55 238.2C111.64 235.53 115.81 236.59 117.81 237.39C118.03 236.72 118.3 235.88 118.51 235.23C118.91 234.02 123.28 216.7 123.83 214.38C124.41 211.99 124.51 210.39 124.42 209.7C124.39 209.5 123.97 209.03 122.95 208.59C122.59 208.44 122.2 208.37 121.48 208.24C120.93 208.14 120.22 208.01 119.23 207.79C116.66 207.22 106.61 205.42 105.47 205.22C102.62 204.71 89.16 203.07 86.76 202.8C85.66 202.68 81.7 201.84 77.1 200.87C72.52 199.9 67.33 198.81 65.77 198.61C64.37 198.44 63.97 199.1 63.45 201.18C63.37 201.51 63.29 201.83 63.2 202.1C62.64 203.83 59.52 215.48 59.03 219.66C58.62 223.23 57.47 225.87 55.53 227.7C58.18 227.74 60.21 229.12 61.17 230.23C61.43 230.53 61.5 230.94 61.37 231.31C61.24 231.68 60.92 231.95 60.53 232.02C60.33 232.09 59.72 232.47 58.98 232.97L59 232.99Z" fill="white"/>
<path d="M3.17999 271.47C3.23999 271.91 3.27001 272.33 3.29001 272.71C3.29001 272.88 3.31001 273.05 3.32001 273.2C3.53001 275.69 4.02001 275.83 4.29001 275.9C4.39001 275.93 4.48001 275.95 4.57001 275.98C4.73001 276.01 5.57999 276.08 6.39999 276.14C8.56999 276.31 11.86 276.55 14.92 277.19C15.52 277.32 16.33 277.38 16.76 277C17.45 276.39 17.29 274.68 17.22 273.87C17.2 273.65 17.18 273.47 17.18 273.33C17.16 272.73 17.64 272.23 18.24 272.21C18.84 272.21 19.34 272.67 19.36 273.27C19.36 273.37 19.38 273.51 19.39 273.67C19.5 274.84 19.71 277.28 18.21 278.62C17.59 279.18 16.78 279.46 15.8 279.46C15.39 279.46 14.95 279.41 14.49 279.31C11.57 278.71 8.37 278.46 6.25 278.3C4.7 278.18 4.2 278.14 3.87 278.02L3.73999 277.98C2.40999 277.62 1.45999 276.69 1.17999 273.36C1.16999 273.18 1.15001 273 1.14001 272.81C1.13001 272.61 1.12001 272.39 1.10001 272.17" fill="white"/>
<path d="M583.47 171.3H409.87V344.89H583.47V171.3Z" fill="#780A47"/>
<path d="M583.46 344.89H409.87V171.3H583.46V344.89ZM412.02 342.74H581.32V173.44H412.02V342.74Z" fill="white"/>
<path d="M479.82 289.03C477.36 287.99 465.05 282.62 463.84 279.05C463.58 278.28 463.77 277.7 463.97 277.34C464.64 276.17 466.23 273.9 467.77 271.71C468.14 271.18 468.51 270.66 468.84 270.18C467.96 270.26 466.67 270.48 465.55 270.67C463.86 270.96 461.95 271.28 459.93 271.49C457.71 271.71 450.23 271.54 449.91 271.54C447.65 271.56 444.83 271.57 440.78 271.57C440.1 271.57 438.34 271.55 436.75 271.54C435.61 271.53 434.56 271.52 434.08 271.52H410.65V269.38H434.08C434.57 269.38 435.62 269.39 436.76 269.4C438.34 269.42 440.09 269.43 440.77 269.43C444.81 269.43 447.63 269.42 449.91 269.4C450.02 269.4 457.6 269.57 459.69 269.36C461.64 269.16 463.51 268.84 465.17 268.56C468.84 267.94 470.52 267.65 471.24 268.78C471.49 269.17 471.65 269.84 471 270.78C470.55 271.43 470.03 272.17 469.49 272.94C468.05 275 466.41 277.33 465.8 278.41C465.94 279.69 472.85 283.78 480.62 287.07L479.78 289.04L479.82 289.03Z" fill="white"/>
<path d="M457.54 308.54C457.12 308.54 456.72 308.42 456.36 308.18C455.67 307.72 455.25 306.87 455.24 305.91C455.2 301.05 458.11 287.48 462.34 280.95L464.14 282.12C460.18 288.24 457.35 301.39 457.38 305.9C457.38 306.21 457.51 306.38 457.55 306.4C462.94 304.22 476.42 295.15 480.86 290.73C483.83 287.77 492.41 276.94 500.41 266.72L520.57 240.46C522.83 237.47 524.77 234.89 526.47 232.61C527.75 230.89 528.9 229.35 529.96 227.95C530.28 227.52 530.63 227.09 530.97 226.67C533.36 223.71 533.87 222.6 532.39 221.36C530.54 219.81 520.04 212.93 518.33 211.92C516.79 211.01 515.63 212.44 513.55 215.68C513.18 216.25 512.82 216.82 512.44 217.36L510.68 216.14C511.04 215.62 511.4 215.07 511.75 214.52C513.61 211.62 515.94 208.01 519.43 210.07C521.05 211.03 531.75 218.02 533.78 219.71C537.12 222.5 534.53 225.68 532.65 228.01C532.32 228.42 531.99 228.82 531.68 229.23C530.62 230.63 529.48 232.16 528.19 233.88C526.49 236.16 524.55 238.75 522.28 241.75L502.11 268.03C494.06 278.3 485.43 289.2 482.38 292.24C477.81 296.79 463.92 306.12 458.4 308.35C458.11 308.47 457.82 308.52 457.53 308.52L457.54 308.54Z" fill="white"/>
<path d="M438.45 247.16H410.67V245.02H438.45C442.39 245.02 446.45 244.9 450.03 244.8C452.48 244.73 454.66 244.67 456.31 244.66L463.15 244.52C468.69 244.54 474.17 244.66 482.09 244.91C482.15 244.91 482.21 244.91 482.28 244.91C489.11 244.91 497.6 233.34 503.23 225.66C507.79 219.45 509.31 217.53 510.9 218.12C512.14 218.59 521.94 225.49 524.91 227.59L523.67 229.34C518.09 225.39 511.79 221.04 510.35 220.23C509.41 220.85 507.05 224.07 504.95 226.93C498.64 235.53 490.04 247.26 482.01 247.06C474.11 246.81 468.65 246.7 463.15 246.67L456.33 246.81C454.68 246.82 452.52 246.88 450.09 246.95C446.49 247.05 442.41 247.17 438.44 247.17L438.45 247.16Z" fill="white"/>
<path d="M409.57 0.600098H240.09V171.8H409.57V0.600098Z" fill="#002A3A"/>
<path d="M410.35 171.8H239.15V0.600098H410.35V171.8ZM241.26 169.68H408.23V2.71008H241.26V169.68Z" fill="white"/>
<path d="M284.25 131.93C281.63 131.93 281.34 130.48 281.34 129.86C281.34 129.65 281.4 129.44 281.52 129.26C281.89 128.7 282.63 128.26 283.9 127.84C285.41 127.3 288.15 125.24 292.31 122.12C295.09 120.03 298.55 117.44 302.87 114.37C306.81 111.57 307.73 110.75 309.01 109.61C309.76 108.94 310.62 108.18 312.21 106.89C316.14 103.71 321.74 97.1701 323.45 95.1301C322.88 94.3501 321.67 92.9001 319.69 91.3401C314.18 87.0401 311.45 81.0401 310.73 76.8601C310.67 76.2501 310.65 75.7202 310.65 75.1702C310.65 68.6502 313.49 61.8701 319.1 55.0201C324.76 48.1001 330.92 44.6001 337.42 44.6001C346.93 44.6001 351.75 52.2701 351.75 67.3901C351.75 69.6101 351.57 72.0602 351.27 74.1702H352.19C359.5 73.9302 367.32 74.1401 374.89 74.3501C380.05 74.4901 384.92 74.6801 389.64 74.6201H409.79V76.7802H389.5C384.79 76.7802 379.95 76.6501 374.83 76.5101C367.29 76.3101 359.5 76.0901 352.22 76.3401L349.99 76.3201C349.67 76.3201 349.37 76.1702 349.16 75.9302C348.96 75.6802 348.87 75.3602 348.93 75.0502C349.34 72.8202 349.58 69.9601 349.58 67.4001C349.58 53.5201 345.6 46.7802 337.41 46.7802C331.59 46.7802 326 50.0202 320.77 56.4102C315.49 62.8602 312.81 69.1801 312.81 75.1901C312.81 75.6701 312.83 76.1401 312.87 76.6001C313.51 80.2801 315.99 85.7201 321.02 89.6401C324.33 92.2301 325.69 94.5702 325.74 94.6702C325.96 95.0602 325.92 95.5501 325.64 95.8901C325.35 96.2501 318.4 104.67 313.57 108.58C312.01 109.84 311.18 110.58 310.44 111.23C309.11 112.41 308.15 113.26 304.12 116.13C299.83 119.18 296.38 121.77 293.6 123.84C289.39 127 286.76 128.97 284.93 129.74C286.67 129.66 290.41 129.34 296.07 128.79C316.4 120.55 328.53 111.76 339.31 97.4901C340.36 96.1001 341.55 94.6301 342.96 92.9801L343.38 92.4801C344.77 90.8101 346.68 88.4902 349.18 88.6702C350.91 88.7802 352.48 90.0802 353.4 92.1602C353.67 92.7702 353.87 93.3901 354.07 93.9801C354.35 94.8201 354.61 95.6102 355.02 96.3002C355.99 97.9302 357.91 99.0801 360.3 99.4701C362.25 99.7901 364.27 99.6501 366.4 99.5001C367.6 99.4201 368.82 99.3101 370.06 99.3301C372.32 99.3301 374.58 99.3302 376.85 99.2902C378.16 99.2702 380.23 99.2601 382.41 99.2601C385.37 99.2601 388.44 99.2501 390.18 99.2001H409.79V101.36H390.22C388.48 101.41 385.4 101.42 382.42 101.42C380.25 101.42 378.2 101.43 376.89 101.45C374.61 101.49 372.33 101.5 370.06 101.49C368.96 101.45 367.77 101.57 366.56 101.65C364.4 101.8 362.16 101.96 359.95 101.6C356.93 101.11 354.46 99.5801 353.16 97.4001C352.63 96.5101 352.32 95.5701 352.02 94.6501C351.84 94.1001 351.66 93.5501 351.43 93.0201C350.98 92.0001 350.12 90.8801 349.06 90.8201C347.7 90.7101 346.22 92.4601 345.06 93.8501L344.62 94.3701C343.24 95.9901 342.07 97.4302 341.05 98.7802C329.98 113.43 317.56 122.42 296.75 130.84C296.65 130.88 296.55 130.9 296.45 130.91C289.6 131.58 285.61 131.91 284.25 131.91V131.93Z" fill="white"/>
<path d="M408.62 74.4903H410.76C414.7 74.5903 418.61 74.7102 422.53 74.8302C431.7 75.1102 441.18 75.4003 450.5 75.4003H457.39C459.77 75.4603 463.73 75.5202 464.92 69.1902C464.92 68.8002 464.96 68.4003 464.99 68.0103C465.02 67.6203 465.06 67.2402 465.05 66.8502C465.05 66.5102 465.05 66.1702 465.05 65.8202C465.05 65.3502 465.05 64.8803 465.05 64.4103L465.03 63.6203C465.02 63.0703 465.01 62.5203 464.98 61.9803C464.95 61.2403 464.89 60.5203 464.84 59.8103L464.82 59.5702C464.79 59.1102 464.72 58.6602 464.66 58.2202C464.61 57.8702 464.56 57.5203 464.52 57.1703C464.48 56.7403 464.42 56.3303 464.36 55.9103V56.5603C462.03 56.5803 459.68 56.6203 457.32 56.6603C454.63 56.7103 451.94 56.7603 449.25 56.7703C447.57 56.7903 445.85 56.6803 444.59 55.4803C443.18 54.1303 442.93 51.8402 443.93 49.3502C445.65 45.0702 450.13 40.9103 455.35 41.2803C456.06 41.3303 456.72 41.5703 457.35 41.8003C457.59 41.8903 457.83 41.9703 458.08 42.0503C458.87 42.3003 459.68 42.6403 460.62 43.1303C461.55 43.6103 462.25 44.1703 462.81 44.8903L463.1 45.2403C463.53 45.7603 464.01 46.3402 464.36 47.1002C464.6 47.6202 464.71 48.1702 464.82 48.7002C464.88 49.0002 464.94 49.3103 465.03 49.6103C465.11 49.8703 465.21 50.1403 465.31 50.4103C465.49 50.8903 465.69 51.4303 465.81 52.0303C465.97 52.7803 466.08 53.5703 466.21 54.3903L466.27 54.8003C466.38 55.5003 466.48 56.2303 466.56 56.9803C466.59 57.3003 466.64 57.6202 466.69 57.9502C466.76 58.4402 466.83 58.9402 466.87 59.4502L466.89 59.6902C466.94 60.4202 467 61.1603 467.03 61.9203C467.06 62.4803 467.07 63.0503 467.08 63.6203L467.1 64.3903C467.11 64.8803 467.11 65.3703 467.1 65.8603C467.1 66.1903 467.1 66.5203 467.1 66.8603C467.1 67.3103 467.07 67.7602 467.03 68.2202C467 68.5902 466.97 68.9602 466.97 69.3202C466.97 69.3802 466.97 69.4403 466.95 69.5003C465.46 77.6403 459.55 77.5303 457.34 77.5003H450.48C441.13 77.4903 431.63 77.2003 422.45 76.9203C418.54 76.8003 414.63 76.6802 410.72 76.5802H408.61M454.73 43.3302C450.71 43.3302 447.25 46.6803 445.87 50.1303C445.35 51.4203 445.12 53.1203 446.04 54.0003C446.75 54.6803 447.95 54.7302 449.26 54.7202C451.93 54.7102 454.62 54.6603 457.3 54.6103C459.6 54.5703 461.89 54.5303 464.16 54.5103C464.05 53.7403 463.94 53.0802 463.81 52.4402C463.72 52.0002 463.56 51.5703 463.39 51.1203C463.27 50.8103 463.16 50.5002 463.07 50.2002C462.96 49.8302 462.88 49.4703 462.81 49.1103C462.72 48.6803 462.64 48.2702 462.5 47.9602C462.26 47.4502 461.89 46.9903 461.53 46.5603L461.22 46.1803C460.83 45.6903 460.36 45.3202 459.69 44.9702C458.86 44.5402 458.16 44.2403 457.49 44.0303C457.21 43.9403 456.94 43.8403 456.67 43.7503C456.12 43.5503 455.65 43.3802 455.23 43.3502C455.07 43.3402 454.9 43.3302 454.74 43.3302H454.73Z" fill="white"/>
<path d="M464.36 103.76C464.15 109.01 464.22 114.34 464.59 119.58C464.79 122.42 465.11 125.39 466.66 127.91C468.55 130.98 471.67 132.68 475.25 132.68C475.94 132.68 476.65 132.62 477.37 132.49C482.43 131.59 486.45 127.84 487.39 123.18C487.55 122.39 487.81 121.44 488.42 121.08C488.62 120.96 488.9 120.88 489.31 120.83C490.76 120.65 492.35 120.73 493.89 120.79C494.64 120.82 495.39 120.86 496.12 120.86L504.09 120.93L504.11 118.87L496.14 118.8C495.43 118.8 494.71 118.76 493.98 118.73C492.36 118.66 490.68 118.58 489.07 118.78C488.63 118.83 487.98 118.94 487.38 119.3C486.06 120.08 485.61 121.57 485.37 122.78C484.61 126.56 481.18 129.72 477.01 130.46C473.38 131.12 470.24 129.79 468.42 126.83C467.11 124.71 466.83 122.02 466.65 119.44C466.35 115.08 466.56 110.04 466.66 105.65L464.36 103.76Z" fill="white"/>
<path d="M526.83 79.3603L524.77 79.2603C524.81 78.4203 524.74 77.5703 524.67 76.6603C524.61 75.8603 524.54 75.0302 524.56 74.2002C524.58 73.2002 524.62 72.2102 524.66 71.2102C524.7 70.1302 524.75 69.0502 524.76 67.9702C524.81 63.7702 524.68 59.5202 524.38 55.3302C524.13 51.8802 523.5 48.3203 520.52 45.6403C517.93 43.3103 514.48 43.3802 510.58 43.7102C499.54 44.6202 493.27 44.6103 487.46 43.6703C474.93 41.6503 469.5 42.1203 460.5 42.9103C458.92 43.0503 457.24 43.2002 455.39 43.3402L455.23 41.2803C457.07 41.1403 458.74 40.9903 460.32 40.8503C469.48 40.0503 475.01 39.5603 487.79 41.6203C493.42 42.5303 499.56 42.5303 510.41 41.6403C514.63 41.2903 518.7 41.2203 521.9 44.1003C525.42 47.2703 526.17 51.3003 526.44 55.1803C526.74 59.4303 526.87 63.7403 526.82 67.9903C526.81 69.0903 526.76 70.1903 526.72 71.2903C526.68 72.2703 526.64 73.2503 526.63 74.2303C526.62 74.9703 526.68 75.7103 526.74 76.5003C526.81 77.4303 526.89 78.3802 526.84 79.3503L526.83 79.3603Z" fill="white"/>
<path d="M587.28 99.3003C581.82 99.4003 576.3 99.4202 570.95 99.4502C568.72 99.4602 566.49 99.4702 564.25 99.4902C562.55 99.5002 560.82 99.5502 559.09 99.5902C554.8 99.7002 550.37 99.8202 546.09 99.4202C544.52 99.2702 542.92 99.0102 541.36 98.7602C534.37 97.6302 528.33 96.6602 526.12 104.95L524.12 104.42C526.81 94.3202 534.72 95.6002 541.69 96.7202C543.21 96.9702 544.79 97.2202 546.28 97.3602C550.43 97.7502 554.8 97.6302 559.03 97.5202C560.78 97.4702 562.51 97.4302 564.23 97.4202C566.46 97.4002 568.7 97.3902 570.93 97.3802C576.26 97.3502 581.74 97.3302 587.17 97.2302" fill="white"/>
<path d="M585.94 78.7301C577.28 79.3201 568.51 79.4802 559.85 78.0602C559.43 77.9902 558.39 78.0102 557.38 78.0302C556.56 78.0402 555.68 78.0602 554.92 78.0302C548.84 77.8302 544.48 80.4702 542.13 81.8802C540.66 82.7702 539.77 83.3001 538.96 82.6901C538.17 82.1001 538.45 81.0002 538.6 80.4202C539 78.8702 540.1 73.7401 540.09 72.2101C539.85 72.1401 539.55 72.0802 539.33 72.0302C538.68 71.9002 537.87 71.7302 537.82 70.8602C537.8 70.5402 537.89 69.9602 538.77 69.6602C539.6 69.3702 540.22 69.3302 540.67 69.2902C541.1 69.2602 541.3 69.2402 541.59 69.0602C541.61 69.0202 541.85 68.6202 542.01 67.7402C542.08 67.3502 542.1 66.9002 542.11 66.4202C542.11 66.1302 542.13 65.8501 542.15 65.5801L542.21 64.8802C542.25 64.4202 542.29 63.9102 542.28 63.6302C542.18 63.6302 542.03 63.6302 541.83 63.6602C541.66 63.6702 541.48 63.7001 541.28 63.7201C540.84 63.7801 540.33 63.8402 539.74 63.8602C538.85 63.9002 538.31 63.5801 538.16 62.9601C537.92 61.9401 538.8 61.5302 540.73 60.6302L540.98 60.5102C541.45 60.2902 542.2 59.9501 542.5 59.7101C542.47 59.1901 542.42 58.3001 542.5 57.2101C542.53 56.8101 542.59 56.3801 542.66 55.9401C542.73 55.5101 542.8 55.0601 542.83 54.6001C542.86 54.0701 542.88 53.5201 542.89 52.9801L542.95 51.3902C542.98 50.6902 543.01 50.0202 543 49.4302C542.99 48.8802 542.94 48.4702 542.9 48.1802C542.7 48.3202 542.43 48.5202 542.08 48.8102L541.76 49.0801C541.32 49.4401 540.82 49.8601 540.34 50.3501C540.05 50.6501 539.79 50.9901 539.51 51.3501C539.3 51.6201 539.08 51.9101 538.84 52.1901C538.64 52.4301 538.42 52.6602 538.2 52.9002C537.89 53.2402 537.56 53.5901 537.26 53.9801C536.88 54.4701 536.53 54.9902 536.16 55.5202L535.49 56.4801C535.17 56.9401 534.84 57.4002 534.53 57.8902C534.11 58.5602 533.71 59.2501 533.33 59.9501C532.95 60.6401 532.6 61.3601 532.26 62.0701C532.07 62.4701 531.89 62.9702 531.68 63.5402L531.42 64.2502C531.3 64.5702 531.16 64.8901 531 65.2201C530.82 65.6101 530.63 66.0301 530.48 66.4701C530.26 67.1301 530.04 67.8302 529.82 68.5502L529.75 68.7802C529.49 69.6002 529.27 70.3401 529.04 71.1001C528.94 71.4401 528.88 71.8002 528.82 72.1702C528.75 72.6102 528.67 73.0602 528.55 73.4902C528.44 73.8902 528.29 74.2802 528.14 74.6802C528 75.0502 527.86 75.4202 527.76 75.8002C527.55 76.5702 527.34 77.3602 527.13 78.1502C527.03 78.5402 526.91 78.9202 526.79 79.3102C526.67 79.7002 526.55 80.1002 526.45 80.5002C526.36 80.8602 526.31 81.2301 526.26 81.6001C526.2 82.0401 526.14 82.4902 526.03 82.9202L525.16 86.4002C525.05 86.8202 524.94 87.2302 524.84 87.6502L524.57 88.7402C524.46 89.1702 524.35 89.5902 524.25 90.0102C524.15 90.4302 524.03 90.8402 523.91 91.2402C523.8 91.6202 523.69 91.9901 523.6 92.3501C523.5 92.7501 523.43 93.1602 523.36 93.5502C523.29 93.9502 523.21 94.3502 523.12 94.7402C523.02 95.1802 522.89 95.6102 522.77 96.0202C522.66 96.3802 522.56 96.7401 522.47 97.0901L521.93 99.4601C521.82 99.9401 521.71 100.38 521.6 100.8C521.51 101.17 521.42 101.51 521.35 101.83C521.18 102.59 521.12 103.08 521.06 103.55C521 104 520.95 104.44 520.82 105.03L518.8 104.59C518.91 104.08 518.96 103.7 519.01 103.3C519.07 102.8 519.14 102.23 519.34 101.38C519.41 101.05 519.51 100.69 519.6 100.3C519.7 99.9002 519.81 99.4702 519.92 99.0102L520.46 96.6302C520.55 96.2402 520.67 95.8401 520.79 95.4401C520.9 95.0601 521.02 94.6802 521.11 94.2702C521.19 93.9202 521.26 93.5502 521.33 93.1802C521.41 92.7502 521.49 92.3102 521.6 91.8702C521.7 91.4702 521.81 91.0702 521.93 90.6602C522.04 90.2802 522.15 89.9102 522.24 89.5202C522.34 89.0902 522.45 88.6601 522.56 88.2301L522.83 87.1502C522.93 86.7302 523.04 86.3002 523.16 85.8802L524.03 82.4102C524.12 82.0602 524.16 81.7001 524.21 81.3301C524.27 80.8901 524.33 80.4401 524.45 79.9801C524.56 79.5501 524.69 79.1301 524.82 78.7101C524.93 78.3501 525.04 77.9802 525.14 77.6202C525.35 76.8202 525.56 76.0302 525.78 75.2502C525.9 74.8102 526.06 74.3801 526.22 73.9501C526.35 73.6101 526.48 73.2702 526.57 72.9202C526.67 72.5602 526.73 72.1901 526.79 71.8301C526.86 71.4001 526.93 70.9502 527.06 70.5002C527.29 69.7302 527.52 68.9802 527.74 68.2602L527.85 67.9202C528.08 67.1802 528.3 66.4602 528.53 65.7902C528.7 65.2702 528.92 64.8001 529.12 64.3401C529.25 64.0501 529.38 63.7702 529.48 63.5002L529.73 62.8102C529.95 62.2102 530.16 61.6402 530.39 61.1502C530.75 60.4002 531.12 59.6502 531.52 58.9202C531.93 58.1902 532.34 57.4602 532.78 56.7702C533.11 56.2502 533.46 55.7502 533.8 55.2602L534.46 54.3201C534.85 53.7601 535.23 53.2101 535.62 52.6901C535.96 52.2501 536.32 51.8501 536.68 51.4701C536.88 51.2501 537.08 51.0401 537.27 50.8201C537.49 50.5601 537.69 50.3002 537.89 50.0502C538.22 49.6302 538.53 49.2302 538.86 48.8902C539.42 48.3102 539.96 47.8601 540.45 47.4601L540.76 47.2001C542.03 46.1301 543.06 45.5101 543.94 45.9501C544.24 46.1001 545.02 46.5002 545.08 49.3602C545.09 49.9902 545.06 50.7001 545.03 51.4501L544.98 53.0002C544.96 53.5702 544.95 54.1401 544.92 54.7001C544.89 55.2301 544.81 55.7402 544.73 56.2402C544.67 56.6202 544.61 56.9801 544.59 57.3201C544.51 58.4701 544.58 59.3601 544.61 59.7301C544.67 60.6101 544.07 61.1902 543.23 61.6802C543.77 61.8702 544.24 62.3102 544.35 63.2302C544.4 63.6602 544.35 64.2602 544.29 65.0102L544.24 65.6901C544.22 65.9401 544.21 66.1901 544.21 66.4501C544.19 66.9901 544.18 67.5401 544.08 68.0801C543.9 69.0301 543.53 70.2602 542.73 70.7602C542.47 70.9202 542.22 71.0402 541.99 71.1102C542.29 72.0002 542.34 74.2302 540.82 80.2402C540.92 80.1802 541.02 80.1202 541.12 80.0602C543.65 78.5402 548.36 75.7102 555.04 75.9102C555.77 75.9302 556.6 75.9102 557.4 75.9102C558.6 75.8902 559.63 75.8701 560.24 75.9701C568.7 77.3601 577.34 77.2002 585.88 76.6202" fill="white"/>
<path d="M519.89 133.31C519.83 133.31 519.77 133.31 519.7 133.31C519.22 133.31 518.74 133.27 518.27 133.24C517.94 133.22 517.61 133.2 517.29 133.19C516.92 133.18 516.55 133.19 516.2 133.19C515.75 133.19 515.3 133.19 514.88 133.17C514.33 133.14 513.81 133.09 513.32 133.04C513.02 133.01 512.74 132.98 512.47 132.96C511.38 132.88 510.48 132.77 510.01 132.7C509.33 132.6 508.47 132.1 507.45 131.22C506.74 130.61 506.14 130.01 505.62 129.39C505.15 128.83 504.69 128.17 504.15 127.27C503.73 126.57 503.25 125.77 502.96 124.9C502.65 123.95 502.53 123 502.61 122.1C502.68 121.31 502.84 120.47 503.11 119.6C503.34 118.85 503.68 118.12 504.01 117.41L505 117.72L504.06 117.28C504.39 116.57 504.73 115.84 505.16 115.13C505.57 114.44 506.04 113.82 506.49 113.22C507.04 112.48 507.58 111.85 508.14 111.26C508.56 110.82 509.09 110.29 509.66 109.84C509.57 109.58 509.4 109.2 509.27 108.92C509.14 108.64 509.02 108.36 508.9 108.08C508.56 107.24 508.28 106.27 508.77 105.44C509.1 104.89 509.67 104.56 510.48 104.46C511.18 104.38 512.03 104.29 513.09 104.26C513.5 104.26 513.94 104.27 514.39 104.3C514.78 104.32 515.23 104.33 515.62 104.34C515.98 104.34 516.36 104.32 516.73 104.31C517.19 104.29 517.67 104.27 518.14 104.28H519.25C519.72 104.28 520.2 104.28 520.67 104.28C521.14 104.28 521.6 104.32 522.06 104.36C522.45 104.39 522.82 104.42 523.19 104.43C523.65 104.43 524.09 104.43 524.51 104.41C524.93 104.4 525.33 104.38 525.71 104.4C526.73 104.42 527.53 104.41 527.98 104.41H528.21C529.18 104.41 530.19 105.03 530.87 106.03C531.46 106.9 531.66 107.97 531.43 108.95C531.29 109.54 530.96 110.1 530.48 110.59C530.78 110.73 531.13 110.95 531.51 111.33L531.92 111.73C532.33 112.13 532.77 112.56 533.19 113.04L533.33 113.2C533.81 113.74 534.3 114.29 534.75 114.89C535.21 115.5 535.73 116.23 536.13 116.97C536.63 117.91 536.93 118.79 536.99 119.58C537.06 120.4 536.99 121.34 536.91 122.25C536.84 123.13 536.76 123.99 536.55 124.88C536.32 125.87 535.93 126.81 535.65 127.42C535.31 128.19 534.9 129.07 534.28 129.83C533.74 130.5 533.04 131.08 532.09 131.66C531.44 132.05 530.55 132.53 529.43 132.73C528.87 132.83 528.29 132.88 527.68 132.92L526.96 132.98C526.19 133.05 525.37 133.11 524.53 133.15L523.85 133.18C523.27 133.21 522.69 133.24 522.1 133.25C521.77 133.25 521.44 133.27 521.12 133.28C520.7 133.3 520.28 133.31 519.87 133.31H519.89ZM516.52 131.11C516.8 131.11 517.08 131.11 517.36 131.12C517.7 131.13 518.05 131.15 518.4 131.18C518.84 131.21 519.28 131.24 519.73 131.24C520.17 131.24 520.62 131.23 521.06 131.21C521.41 131.2 521.75 131.18 522.1 131.18C522.66 131.18 523.22 131.14 523.77 131.12L524.46 131.09C525.27 131.05 526.05 131 526.79 130.93L527.54 130.87C528.1 130.83 528.62 130.79 529.08 130.71C529.86 130.57 530.51 130.22 531.04 129.9C531.78 129.45 532.3 129.02 532.69 128.55C533.15 127.98 533.48 127.27 533.78 126.6C534.17 125.73 534.4 125.06 534.55 124.42C534.73 123.66 534.8 122.88 534.87 122.09C534.94 121.26 535.01 120.4 534.95 119.76C534.91 119.26 534.69 118.63 534.33 117.95C533.99 117.32 533.53 116.68 533.12 116.13C532.72 115.6 532.26 115.08 531.81 114.57L531.66 114.4C531.27 113.96 530.86 113.56 530.49 113.19L530.07 112.77C529.82 112.52 529.6 112.43 529.35 112.32C528.88 112.12 528.02 111.76 528.07 110.36C528.08 110.03 528.25 109.72 528.53 109.54C529.03 109.21 529.36 108.82 529.45 108.45C529.55 108.04 529.45 107.57 529.19 107.18C528.89 106.74 528.47 106.47 528.24 106.47H528.02C527.56 106.47 526.75 106.47 525.71 106.46C525.36 106.46 525 106.46 524.61 106.48C524.16 106.49 523.69 106.51 523.2 106.5C522.79 106.5 522.37 106.46 521.94 106.43C521.53 106.4 521.11 106.37 520.68 106.36C520.22 106.36 519.76 106.36 519.3 106.36H518.17C517.73 106.36 517.29 106.37 516.85 106.39C516.43 106.41 516.02 106.42 515.63 106.42C515.18 106.42 514.75 106.4 514.33 106.38C513.92 106.36 513.53 106.33 513.18 106.35C512.08 106.37 511.2 106.48 510.77 106.53C510.71 106.53 510.66 106.55 510.62 106.55C510.64 106.67 510.69 106.9 510.86 107.32C510.96 107.57 511.08 107.83 511.19 108.09C511.71 109.24 512.3 110.55 511.24 111.29C510.69 111.67 510.11 112.25 509.67 112.71C509.16 113.24 508.68 113.81 508.24 114.39C507.75 115.04 507.32 115.62 506.96 116.22C506.59 116.83 506.27 117.52 505.97 118.18L505.91 118.3C505.6 118.97 505.3 119.61 505.11 120.23C504.89 120.96 504.75 121.65 504.69 122.29C504.64 122.91 504.73 123.6 504.95 124.28C505.16 124.93 505.56 125.59 505.94 126.23C506.43 127.04 506.82 127.61 507.22 128.09C507.67 128.63 508.19 129.15 508.82 129.69C509.71 130.46 510.22 130.68 510.34 130.7C510.49 130.72 511.3 130.84 512.64 130.94C512.92 130.96 513.23 130.99 513.54 131.02C513.99 131.07 514.48 131.11 515 131.14C515.39 131.16 515.79 131.16 516.21 131.16H516.54L516.52 131.11Z" fill="white"/>
<path d="M522.86 133.56C517.67 133.56 512.76 133.21 507.95 132.86C500.47 132.32 493.41 131.82 486.02 132.67L485.78 130.62C493.36 129.75 500.51 130.26 508.09 130.8C516.57 131.41 525.35 132.04 535.3 130.7C536.03 130.6 536.8 130.5 537.58 130.21L537.7 130.17C538.39 129.91 539.11 129.65 539.71 129.25C540.3 128.86 540.91 128.33 541.47 127.72C542.05 127.09 542.49 126.46 542.76 125.86C543.02 125.3 543.17 124.59 543.22 123.72C543.26 122.94 543.29 122.21 543.18 121.78C543.08 121.42 542.9 121.14 542.29 120.92C541.99 120.81 541.5 120.8 540.92 120.8H540.39C540.08 120.78 539.75 120.74 539.4 120.7C539.01 120.65 538.6 120.6 538.19 120.6C537.9 120.6 537.61 120.64 537.3 120.67C536.86 120.72 536.41 120.76 535.93 120.76V118.7C536.34 118.7 536.72 118.66 537.09 118.62C537.46 118.58 537.82 118.55 538.16 118.54C538.72 118.52 539.22 118.6 539.67 118.65C539.94 118.69 540.2 118.72 540.45 118.73H540.95C541.71 118.75 542.37 118.76 542.99 118.99C544.14 119.41 544.88 120.17 545.17 121.26C545.36 121.99 545.33 122.86 545.28 123.85C545.21 124.99 545 125.94 544.63 126.74C544.26 127.54 543.71 128.34 542.98 129.13C542.3 129.87 541.56 130.51 540.84 130.99C540.04 131.52 539.17 131.84 538.41 132.13L538.29 132.17C537.3 132.54 536.37 132.66 535.62 132.77C531.13 133.37 526.91 133.59 522.85 133.59L522.86 133.56Z" fill="white"/>
<path d="M408.62 99.2002C412.71 99.2902 416.65 99.4002 420.53 99.5002C429.8 99.7502 439.38 100.01 450.49 100.01H456.3C456.57 100.01 456.92 99.9902 457.31 99.9702C459.35 99.8502 462.77 99.6502 464.81 101.59C465.88 102.61 466.41 104.05 466.4 105.89L464.33 105.87C464.34 104.62 464.03 103.71 463.38 103.09C461.99 101.77 459.24 101.93 457.43 102.04C456.99 102.07 456.6 102.09 456.3 102.09H450.49C439.35 102.09 429.76 101.82 420.47 101.57C416.6 101.46 412.68 101.36 408.61 101.27" fill="white"/>
</svg>
